<?xml version="1.0" encoding="utf-8"?>
<!-- Generator: Adobe Illustrator 24.3.0, SVG Export Plug-In . SVG Version: 6.00 Build 0)  -->
<svg version="1.1" id="Layer_1" xmlns="http://www.w3.org/2000/svg" xmlns:xlink="http://www.w3.org/1999/xlink" x="0px" y="0px"
	 viewBox="0 0 193 193" style="enable-background:new 0 0 193 193;" xml:space="preserve">
<style type="text/css">
	.st0{fill:#5B949F;}
	.st1{opacity:0.49;}
</style>
<path class="st0" d="M193,96.5c0,53.3-43.2,96.5-96.5,96.5S0,149.8,0,96.5c0-0.7,0-1.4,0-2.2c0-0.7,0-1.4,0-2.1
	C0,41.3,41.3,0,92.3,0c0.7,0,1.4,0,2.1,0c0.7,0,1.4,0,2.2,0C149.8,0,193,43.2,193,96.5z"/>
<path class="st1" d="M193,96.5c0,53.3-43.2,96.5-96.5,96.5S0,149.8,0,96.5c0-0.7,0-1.4,0-2.2c1.1,50,42,90.2,92.2,90.2
	c51,0,92.3-41.3,92.3-92.3C184.6,42,144.3,1.1,94.3,0c0.7,0,1.4,0,2.2,0C149.8,0,193,43.2,193,96.5z"/>
</svg>
