<svg id="Layer_1" data-name="Layer 1" xmlns="http://www.w3.org/2000/svg" xmlns:xlink="http://www.w3.org/1999/xlink" viewBox="0 0 1296 1725.42"><defs><style>.cls-1{fill:none;}.cls-2{fill:url(#linear-gradient);}.cls-3{fill:url(#linear-gradient-2);}.cls-4{fill:url(#linear-gradient-3);}.cls-5{fill:url(#linear-gradient-4);}.cls-6{fill:#5b949f;}.cls-7{fill:url(#linear-gradient-5);}.cls-8{fill:url(#linear-gradient-6);}.cls-9{fill:url(#linear-gradient-7);}</style><linearGradient id="linear-gradient" x1="592.89" y1="989.71" x2="602.86" y2="608.55" gradientUnits="userSpaceOnUse"><stop offset="0.18" stop-color="#2a264e"/><stop offset="0.43" stop-color="#252e52"/><stop offset="0.7" stop-color="#1b3c59"/></linearGradient><linearGradient id="linear-gradient-2" x1="510.47" y1="963.23" x2="510.47" y2="963.23" gradientUnits="userSpaceOnUse"><stop offset="0" stop-color="#1b3c59"/><stop offset="0.36" stop-color="#1c3b59"/><stop offset="0.48" stop-color="#1c3b59"/><stop offset="1" stop-color="#2a264e"/></linearGradient><linearGradient id="linear-gradient-3" x1="543.03" y1="970.93" x2="543.03" y2="970.93" xlink:href="#linear-gradient-2"/><linearGradient id="linear-gradient-4" x1="594.83" y1="940.53" x2="597.14" y2="805.95" xlink:href="#linear-gradient-2"/><linearGradient id="linear-gradient-5" x1="575.54" y1="754.69" x2="639.43" y2="754.69" gradientUnits="userSpaceOnUse"><stop offset="0" stop-color="#f28177"/><stop offset="0.31" stop-color="#f2897e"/><stop offset="0.79" stop-color="#f29e8f"/><stop offset="1" stop-color="#f2a999"/></linearGradient><linearGradient id="linear-gradient-6" x1="596.06" y1="864.79" x2="596.57" y2="1051.07" gradientUnits="userSpaceOnUse"><stop offset="0" stop-color="#2e2b4f"/><stop offset="0.1" stop-color="#383454"/><stop offset="0.27" stop-color="#524b63"/><stop offset="0.48" stop-color="#7e707b"/><stop offset="0.73" stop-color="#b9a49c"/><stop offset="0.95" stop-color="#f2d5bb"/></linearGradient><linearGradient id="linear-gradient-7" x1="812.23" y1="881.06" x2="913.48" y2="881.06" xlink:href="#linear-gradient-5"/></defs><rect class="cls-1" width="1296" height="1725.42" rx="102.8"/><rect class="cls-1" width="1296" height="1725.42"/><path class="cls-1" d="M419.5,1725.37h0C193.62,1744,0,1565.72,0,1339.07V388.93C0,187.22,154.7,19.23,355.72,2.63h0C581.6-16,775.22,162.28,775.22,388.93v950.14C775.22,1540.78,620.53,1708.77,419.5,1725.37Z" transform="translate(0 -1.29)"/><path class="cls-1" d="M940.28,1725.37h0c-225.88,18.65-419.5-159.65-419.5-386.3V388.93c0-201.71,154.69-369.7,355.72-386.3h0C1102.38-16,1296,162.28,1296,388.93v950.14C1296,1540.78,1141.3,1708.77,940.28,1725.37Z" transform="translate(0 -1.29)"/><path class="cls-2" d="M629.87,789.48c71.4,8.06,134.25,41,177.66,89.07a5.11,5.11,0,0,1,0,7l-.08.09a6.46,6.46,0,0,1-9.13.2C748.22,835.9,676,804.55,595.71,804.55S443.19,835.9,393.12,885.82a6.46,6.46,0,0,1-9.13-.2l-.08-.09a5.11,5.11,0,0,1,0-7c45.5-50.36,112.36-84.16,188.06-90.06.22,0,.44,0,.67,0l17.23.3" transform="translate(0 -1.29)"/><path class="cls-3" d="M510.47,963.23" transform="translate(0 -1.29)"/><path class="cls-4" d="M543,970.93" transform="translate(0 -1.29)"/><path class="cls-5" d="M475.28,950.29A282.44,282.44,0,0,1,434.61,928a264.74,264.74,0,0,1-42.5-34.82,5.11,5.11,0,0,1,0-7.32c50.11-50.52,122.75-82.29,203.6-82.29S749.2,835.34,799.3,885.86a5.11,5.11,0,0,1,0,7.32A265.26,265.26,0,0,1,756.8,928a282.33,282.33,0,0,1-40.66,22.29" transform="translate(0 -1.29)"/><ellipse class="cls-6" cx="493.28" cy="856.14" rx="26.06" ry="23.62"/><path class="cls-7" d="M627.67,787.22c4.47-6.05,8.55-10.4,10.33-18a52.51,52.51,0,0,0,1.42-11.72,54.81,54.81,0,0,0-10.6-32.85c-2.63-3.65-8.62-3.24-10.61.72a153.38,153.38,0,0,1-38.45,48.32c-3.65,3.08-6.55,11.92-1.57,12.06Z" transform="translate(0 -1.29)"/><path class="cls-8" d="M710.26,942.61c3.21,2.65,2.36,7.44-1.6,9.06a297.19,297.19,0,0,1-112.37,21.8c-1.9,0-3.79,0-5.68-.09-2.3,0-4.57-.11-6.83-.19-.44,0-.9,0-1.37-.06-1.77-.09-3.57-.17-5.34-.28-1.08-.06-2.14-.11-3.23-.23-1.58-.11-3.16-.25-4.74-.39l-2.05-.17q-3-.3-6-.65c-.59,0-1.15-.14-1.74-.19-2-.23-3.88-.48-5.81-.76l-1.67-.26c-1.77-.25-3.51-.53-5.22-.81l-3-.51-4.47-.84c-.9-.17-1.8-.34-2.73-.54-1.52-.31-3-.62-4.56-1-1.27-.29-2.52-.57-3.76-.88-1-.19-2-.42-3-.67-1.45-.34-2.88-.7-4.31-1.1-1.12-.25-2.2-.56-3.29-.87q-2.84-.76-5.62-1.6a4.79,4.79,0,0,1-.87-.26c-2.39-.67-4.75-1.43-7.11-2.19s-4.43-1.46-6.64-2.25c-4.5-1.56-9-3.26-13.35-5.05-4-1.62-4.86-6.4-1.64-9.07,30.09-24.84,70.08-40,114-40S680.17,917.77,710.26,942.61Z" transform="translate(0 -1.29)"/><path class="cls-1" d="M527.51,967.73" transform="translate(0 -1.29)"/><path class="cls-1" d="M535.83,969.56" transform="translate(0 -1.29)"/><path class="cls-1" d="M543,970.93" transform="translate(0 -1.29)"/><path class="cls-1" d="M553,972.51" transform="translate(0 -1.29)"/><path class="cls-1" d="M496.72,958.78c-7.29-2.53-14.46-5.4-21.44-8.49A282.44,282.44,0,0,1,434.61,928" transform="translate(0 -1.29)"/><path class="cls-1" d="M527.51,967.73" transform="translate(0 -1.29)"/><path class="cls-1" d="M538.56,970.09l-2.73-.53" transform="translate(0 -1.29)"/><path class="cls-1" d="M551.29,972.26" transform="translate(0 -1.29)"/><path class="cls-1" d="M560.51,973.47" transform="translate(0 -1.29)"/><path class="cls-1" d="M802.86,889.52A264.31,264.31,0,0,1,756.8,928a282.33,282.33,0,0,1-40.66,22.29,296.48,296.48,0,0,1-120.43,25.23c-1.9,0-3.79,0-5.68-.08-2.3,0-4.57-.12-6.83-.2-.44,0-.9,0-1.37-.06-1.77-.08-3.57-.17-5.34-.28l-3.22-.22c-1.59-.12-3.17-.26-4.75-.4" transform="translate(0 -1.29)"/><path class="cls-9" d="M913.48,881.05a229.17,229.17,0,0,1-35.34,122c-2.87,4.58-10.51,3.22-11.28-2a222.18,222.18,0,0,0-6.24-28.8,238.33,238.33,0,0,0-47.15-87.88,5.08,5.08,0,0,1,0-6.66,238.37,238.37,0,0,0,47-87.2,224.92,224.92,0,0,0,6.43-29.47c.77-5.21,8.41-6.56,11.27-2A229.13,229.13,0,0,1,913.48,881.05Z" transform="translate(0 -1.29)"/></svg>